<?xml version="1.0" standalone="no"?>
<!DOCTYPE svg PUBLIC "-//W3C//DTD SVG 20010904//EN"
 "http://www.w3.org/TR/2001/REC-SVG-20010904/DTD/svg10.dtd">
<svg version="1.0" xmlns="http://www.w3.org/2000/svg"
 width="544.000000pt" height="544.000000pt" viewBox="0 0 544.000000 544.000000"
 preserveAspectRatio="xMidYMid meet">
<metadata>
Created by potrace 1.14, written by Peter Selinger 2001-2017
</metadata>
<g transform="translate(0.000000,544.000000) scale(0.100000,-0.100000)"
fill="#000000" stroke="none">
<path d="M22 5373 c3 -62 5 -68 26 -71 39 -6 52 15 52 79 l0 59 -40 0 -41 0 3
-67z"/>
<path d="M122 5376 c4 -82 -17 -111 -74 -103 l-38 5 23 -20 22 -19 -27 5 -28
6 1 -172 c0 -144 2 -168 12 -141 16 41 26 51 37 33 7 -12 15 -12 43 -2 18 7
36 12 39 12 4 0 14 -24 23 -52 10 -29 20 -56 24 -60 3 -4 15 20 25 52 11 34
25 60 33 60 16 0 17 6 -12 -80 -19 -55 -22 -76 -14 -86 9 -11 -2 -14 -65 -12
-53 1 -76 5 -76 13 0 14 -22 25 -51 25 -18 0 -19 -9 -19 -169 0 -93 4 -171 8
-173 13 -5 75 -168 67 -176 -4 -4 -14 3 -22 16 -9 12 -24 22 -34 22 -18 0 -19
-13 -19 -303 0 -315 0 -320 45 -429 11 -27 -20 -23 -33 5 -8 17 -11 -18 -11
-145 l-1 -168 25 0 c16 0 25 -6 25 -15 0 -11 -7 -14 -25 -9 -22 5 -25 3 -25
-18 0 -15 11 -32 30 -46 44 -33 37 -92 -12 -92 -15 0 -18 -9 -18 -56 0 -36 5
-61 15 -70 19 -20 19 -54 0 -54 -18 0 -20 -36 -2 -43 9 -4 9 -6 0 -6 -10 -1
-13 -257 -13 -1243 0 -1072 2 -1250 15 -1292 19 -62 19 -86 0 -86 -12 0 -15
-14 -15 -65 l0 -65 983 0 c876 1 979 2 955 16 -16 8 -28 19 -28 24 0 16 -42
23 -51 9 -7 -11 -12 -11 -26 4 -17 17 -17 18 0 11 33 -12 19 33 -20 64 -37 28
-118 72 -135 72 -4 0 -8 -16 -8 -35 0 -55 -24 -43 -70 35 -22 39 -45 71 -50
71 -6 1 -15 2 -20 3 -6 0 -14 6 -18 12 -9 13 -54 44 -64 44 -4 0 -9 -44 -10
-97 l-3 -98 -31 -3 -31 -3 -6 83 c-4 46 -7 105 -7 132 0 27 -3 46 -7 43 -3 -4
-11 1 -18 10 -13 18 -35 10 -35 -13 0 -9 10 -25 23 -36 16 -14 17 -18 5 -14
-12 3 -21 -4 -30 -26 -53 -128 -90 -169 -164 -182 -27 -6 -47 -2 -82 16 -39
19 -52 34 -77 82 -27 54 -30 70 -34 178 -3 130 9 188 55 258 46 70 139 91 205
47 60 -40 83 -89 104 -219 3 -23 14 -42 30 -52 l25 -16 -1 102 c-1 135 8 198
30 198 10 0 43 -47 92 -132 41 -73 82 -133 90 -133 8 0 13 6 12 13 -2 6 2 12
7 12 6 0 10 47 10 120 l0 120 34 0 c34 0 35 0 41 -55 5 -34 14 -59 24 -66 14
-9 14 -10 -2 -5 -16 5 -17 -4 -15 -98 1 -98 3 -105 25 -117 12 -7 21 -14 19
-16 -2 -3 -13 0 -23 5 -17 9 -19 6 -21 -36 -1 -26 -4 -59 -7 -73 -5 -24 -1
-29 44 -52 l50 -26 11 34 c14 42 44 54 72 29 19 -18 21 -53 7 -104 -2 -9 2
-14 13 -14 10 1 15 -2 13 -7 -3 -4 30 -42 74 -84 43 -42 96 -101 118 -133 l39
-57 76 -3 c68 -2 76 -1 74 15 -1 13 5 17 19 15 20 -3 20 -3 1 11 -19 14 -19
15 5 27 22 12 23 12 9 -5 -13 -16 -12 -17 5 -13 14 3 19 11 17 28 -1 14 -7 27
-12 28 -6 2 -7 8 -4 14 4 6 13 1 21 -13 8 -13 12 -16 9 -7 -3 10 0 20 5 24 6
3 9 15 6 25 -3 11 1 20 12 22 14 4 14 5 0 6 -9 0 -21 12 -27 26 -13 28 -53 48
-79 38 -12 -5 -14 -3 -8 7 6 10 4 12 -8 7 -9 -3 -17 -1 -19 5 -3 7 -10 8 -17
4 -7 -5 -10 -13 -8 -20 3 -7 -5 -12 -22 -11 -14 1 -31 -3 -38 -8 -17 -12 -53
10 -53 32 0 23 19 39 43 36 9 -2 17 2 17 7 0 6 9 3 20 -7 14 -13 23 -15 32 -8
7 6 27 14 44 17 27 6 31 11 26 29 -3 12 -10 25 -16 29 -7 5 -4 8 7 8 26 0 21
18 -18 57 -39 39 -41 43 -21 43 8 0 18 -9 21 -20 6 -18 25 -29 25 -14 0 14
-72 76 -79 68 -9 -13 -51 -16 -51 -3 0 7 -32 9 -102 4 -119 -7 -188 -22 -188
-40 0 -20 -30 -27 -37 -9 -3 8 -11 13 -19 10 -7 -3 -17 1 -23 8 -9 10 -7 15 9
19 13 3 18 1 13 -5 -4 -7 -1 -8 6 -3 8 4 11 17 7 34 -4 14 -9 104 -12 199 l-6
172 41 0 41 0 0 -53 0 -53 38 -1 c98 -2 201 -19 312 -52 19 -5 76 -21 125 -34
103 -27 194 -63 345 -135 58 -27 117 -52 132 -56 15 -3 36 -19 45 -33 10 -15
38 -48 61 -73 53 -54 94 -113 112 -160 8 -19 28 -58 46 -87 18 -29 39 -74 47
-100 12 -40 18 -49 40 -51 15 -2 27 1 27 7 0 14 47 14 55 1 10 -16 123 -12
149 5 21 14 24 14 36 0 17 -21 160 -22 160 -1 0 7 -6 19 -14 25 -7 6 -16 25
-20 42 -11 59 -74 177 -105 200 -17 12 -28 26 -25 31 7 11 -20 37 -58 57 -16
8 -28 18 -28 23 0 4 -12 8 -26 8 -14 0 -33 4 -43 9 -10 6 -29 11 -44 13 -14 2
-30 7 -34 12 -13 13 -76 38 -107 42 -16 2 -34 8 -41 14 -22 18 -110 62 -132
66 -12 2 -34 15 -47 29 -14 14 -29 25 -33 26 -4 1 -21 2 -38 4 -36 2 -55 9
-116 41 -26 13 -54 24 -63 24 -9 0 -16 4 -16 8 0 4 -15 12 -32 18 -18 5 -32
15 -31 22 2 7 -7 12 -21 12 -13 0 -37 6 -53 14 -15 8 -41 18 -58 23 -16 5 -29
14 -28 20 1 5 -14 16 -33 23 -18 8 -34 19 -34 24 0 6 -11 12 -24 12 -14 1 -35
11 -47 23 -12 11 -31 23 -41 27 -10 3 -18 10 -18 15 0 5 -7 9 -15 9 -9 0 -18
6 -21 13 -2 7 -33 26 -69 43 -42 19 -65 36 -68 49 -2 11 -5 3 -6 -18 -2 -56
-26 -45 -73 32 -21 35 -53 78 -70 95 -18 17 -26 23 -19 14 8 -11 9 -18 3 -18
-6 0 -14 9 -17 20 -4 11 -11 18 -16 15 -5 -4 -9 2 -9 12 0 15 -2 16 -10 3 -5
-8 -10 -10 -11 -5 -3 27 -18 -78 -18 -132 l-1 -63 -35 0 -35 0 0 295 c0 285 1
295 19 295 13 0 29 -17 48 -51 l27 -51 30 33 c79 90 95 108 128 132 19 15 44
27 56 27 20 0 207 -108 302 -174 25 -17 79 -52 120 -76 41 -25 97 -60 125 -77
27 -18 58 -33 67 -33 10 0 18 -4 18 -10 0 -5 24 -22 53 -36 28 -15 63 -34 77
-44 51 -35 160 -89 160 -79 0 6 5 7 10 4 6 -4 8 -11 5 -16 -4 -5 -2 -9 4 -9 5
0 13 5 16 10 5 8 11 7 21 -1 10 -8 14 -8 14 0 0 6 11 16 25 21 14 5 25 14 25
20 0 5 9 10 20 10 11 0 20 7 20 15 0 10 10 15 30 15 17 0 30 4 30 9 0 5 16 15
35 21 19 6 35 17 35 24 0 9 14 11 51 8 36 -3 50 -1 45 7 -4 6 0 11 8 11 9 0
16 9 16 20 0 13 5 18 16 13 11 -4 15 -1 12 13 -3 17 3 19 51 17 50 -2 77 -16
65 -35 -6 -9 -64 1 -82 15 -9 7 -11 6 -6 -7 3 -9 10 -16 15 -16 5 0 9 -4 9
-10 0 -5 -14 -10 -30 -10 -18 0 -33 -6 -36 -15 -4 -8 -13 -15 -20 -15 -8 0
-17 -7 -20 -15 -4 -8 -13 -15 -21 -15 -7 0 -24 -11 -37 -25 -13 -14 -33 -25
-45 -25 -11 0 -31 -11 -42 -24 -12 -13 -32 -27 -45 -30 -13 -4 -24 -11 -24
-16 0 -6 -16 -10 -36 -10 -25 0 -33 -4 -28 -12 6 -10 4 -10 -7 -1 -18 18 -34
16 -19 -2 13 -15 245 -153 335 -198 41 -20 55 -23 70 -14 26 14 65 18 65 6 0
-5 -14 -12 -31 -16 -25 -5 -28 -8 -17 -18 17 -17 206 -112 238 -120 14 -4 56
-23 95 -44 64 -33 73 -43 118 -116 52 -85 93 -142 194 -268 35 -43 63 -81 63
-85 0 -4 20 -30 45 -57 25 -28 45 -53 45 -56 0 -4 8 -10 17 -13 15 -6 14 -3
-3 16 -11 13 -26 37 -33 54 -14 34 -7 53 34 99 11 12 28 34 38 49 10 15 22 24
28 21 5 -4 9 -2 9 2 0 5 12 16 28 25 20 13 22 18 10 18 -32 0 -60 38 -53 71 4
18 3 29 -4 29 -7 0 -11 24 -11 60 0 53 -2 60 -20 60 -11 0 -20 5 -20 10 0 6
20 10 45 10 41 0 45 2 41 23 -3 12 -5 32 -5 45 -1 15 -7 22 -21 22 -24 0 -25
7 -5 53 19 46 19 67 0 67 -8 0 -15 7 -15 15 0 8 -4 15 -9 15 -5 0 -14 15 -22
33 -7 17 -20 39 -28 48 -30 31 -49 57 -55 75 -4 11 -22 30 -41 44 -19 14 -40
37 -47 52 -7 16 -19 28 -25 28 -7 0 -13 7 -13 16 0 9 -11 27 -24 39 -13 12
-32 37 -41 55 -9 17 -19 29 -22 26 -9 -9 -38 42 -58 104 -19 58 -31 73 -53 65
-20 -7 -33 43 -31 122 2 72 2 74 44 112 63 58 113 88 179 106 76 22 139 16
213 -21 56 -28 59 -32 108 -131 33 -68 55 -102 65 -100 26 4 23 50 -5 77 -24
23 -31 52 -19 84 8 21 30 9 55 -31 24 -38 33 -35 43 16 5 26 3 32 -9 28 -10
-5 -16 6 -21 40 l-7 45 -42 -5 -42 -6 -7 47 c-5 38 -3 49 11 60 22 16 57 8 84
-19 l21 -21 23 48 c13 27 21 52 19 56 -2 3 1 10 7 13 6 4 13 -2 16 -14 3 -12
13 -21 23 -21 10 0 25 -7 34 -15 8 -8 19 -15 25 -15 14 0 24 -36 16 -60 -4
-12 -1 -27 5 -35 18 -22 3 -18 -22 5 -12 11 -30 20 -40 20 -10 0 -18 5 -18 10
0 6 -4 10 -10 10 -5 0 -10 -11 -10 -25 0 -20 7 -26 38 -34 25 -7 43 -21 56
-41 31 -53 60 -55 125 -8 13 10 32 18 42 18 30 0 22 15 -16 30 -19 8 -35 17
-35 21 0 3 -14 9 -30 13 -36 7 -41 36 -6 36 23 0 116 -36 126 -49 7 -9 60 -8
60 1 0 3 -16 16 -35 28 -34 21 -46 40 -25 40 6 0 10 10 10 23 0 24 -37 167
-45 175 -12 13 -45 -33 -45 -64 0 -47 -18 -52 -25 -7 -10 60 -14 66 -36 60
-20 -5 -20 -5 -4 20 9 13 14 27 12 30 -10 9 -44 -21 -41 -36 7 -29 -23 -54
-78 -62 -28 -5 -54 -7 -56 -4 -2 2 20 26 49 54 46 44 51 51 33 56 -10 4 -27
11 -36 16 -9 5 -35 12 -58 15 -34 6 -40 4 -40 -11 0 -13 -6 -16 -24 -11 -28 7
-46 -12 -25 -25 7 -4 16 -4 19 1 3 5 11 6 18 1 9 -6 9 -13 -1 -34 -14 -32 -32
-36 -24 -6 4 17 3 18 -9 8 -12 -10 -13 -9 -8 4 4 12 1 14 -15 10 -18 -5 -21
-1 -21 26 0 21 -5 31 -15 31 -16 0 -55 34 -55 49 0 19 28 30 63 24 l36 -5 -22
-20 c-12 -11 -16 -17 -9 -13 6 3 12 0 12 -7 0 -8 4 -7 11 4 9 15 13 16 51 2
23 -8 60 -15 82 -15 23 -1 59 -9 81 -19 39 -16 42 -16 75 1 23 13 36 15 41 8
4 -8 8 -7 12 2 3 9 6 5 6 -7 1 -12 8 -25 17 -28 8 -3 12 -2 9 4 -3 6 -1 10 4
10 6 0 11 -4 11 -9 0 -5 9 -7 20 -4 22 6 26 -7 8 -25 -12 -12 0 -28 72 -102 9
-9 16 -40 19 -80 2 -36 7 -67 13 -69 5 -1 29 -21 54 -42 25 -21 53 -39 64 -39
10 0 20 -7 24 -15 9 -24 32 -18 45 12 7 15 21 33 32 41 16 11 18 17 8 28 -7 9
-20 12 -31 8 -17 -5 -19 -2 -14 14 6 16 -3 28 -41 57 -26 19 -65 61 -85 93
l-37 57 26 7 c15 4 30 5 35 1 6 -3 24 2 41 10 55 27 166 59 179 51 6 -4 8 -3
5 4 -5 6 7 12 30 15 34 5 98 3 98 -2 0 -2 7 -4 15 -6 8 -2 23 -6 32 -10 16 -6
17 31 18 588 0 472 -2 596 -12 600 -10 3 -11 9 0 26 6 11 12 32 12 46 0 19 -4
23 -17 18 -17 -7 -17 -6 0 20 14 22 17 50 17 169 l0 143 -46 38 c-29 23 -57
37 -75 37 -35 0 -46 29 -25 71 12 25 13 40 5 80 -14 65 -29 62 -29 -5 0 -85
-14 -104 -51 -70 -14 12 -22 13 -38 4 -19 -9 -21 -8 -21 15 0 14 5 25 10 25
15 0 50 38 50 55 0 22 -27 18 -33 -5 -3 -11 -10 -20 -16 -20 -6 0 -11 9 -11
20 0 11 5 20 11 20 5 0 8 4 5 9 -9 13 19 32 38 25 11 -4 16 -1 16 10 0 41 75
106 122 106 11 0 35 7 54 16 l34 16 0 629 0 629 -41 0 c-36 0 -40 -2 -29 -15
21 -25 2 -30 -23 -7 -23 22 -27 22 -390 22 -310 0 -367 -2 -367 -14 0 -8 5
-16 12 -18 8 -3 9 -11 3 -24 -11 -24 -12 -30 -14 -51 -2 -31 -13 -5 -15 39 -1
24 -5 49 -9 56 -6 9 -74 12 -284 12 -273 0 -277 0 -301 -22 l-25 -23 6 23 c4
19 1 22 -28 22 -18 0 -39 -7 -46 -16 -31 -38 -86 -63 -123 -57 -43 7 -45 15
-11 41 14 11 25 23 25 26 0 3 -60 6 -132 6 l-133 0 32 -30 c18 -17 42 -30 54
-30 18 0 20 -4 16 -27 -3 -15 -1 -38 4 -51 7 -19 14 -23 33 -18 33 8 83 -11
89 -36 6 -21 -10 -75 -19 -65 -3 2 -17 -6 -31 -19 -17 -15 -36 -23 -52 -22
-27 3 -53 21 -49 35 1 4 -2 23 -6 41 -4 19 -4 38 2 45 19 25 9 42 -25 44 -42
2 -65 20 -58 44 3 9 0 21 -7 26 -8 4 -21 20 -31 36 l-17 27 -998 -1 c-548 0
-991 -3 -984 -6 18 -7 15 -21 -9 -33 -15 -9 -24 -8 -36 1 -12 11 -17 10 -28
-4 -6 -9 -15 -14 -18 -11 -7 8 3 37 17 46 6 4 -18 8 -54 8 -50 0 -61 -3 -52
-12 7 -7 12 -33 12 -59 0 -65 -23 -92 -81 -93 l-44 -1 0 75 0 75 -37 3 c-21 2
-38 -1 -38 -7 0 -5 -3 -16 -6 -25 -4 -12 0 -16 15 -16 12 0 21 -4 21 -10 0 -5
-13 -10 -30 -10 -27 0 -30 -3 -30 -30 0 -28 2 -30 40 -30 29 0 40 -4 40 -16 0
-12 -10 -14 -52 -12 l-53 3 -3 83 -3 82 -49 0 -50 0 0 -69 0 -70 43 -3 c58 -4
49 -22 -13 -26 -36 -2 -50 1 -51 10 0 7 0 46 1 87 1 65 -1 73 -15 67 -9 -3
-28 -6 -41 -6 -22 0 -25 -4 -22 -32 2 -18 8 -36 13 -40 7 -5 6 -14 -3 -28 -6
-11 -12 -29 -12 -40 0 -30 -16 -24 -34 11 -11 22 -13 36 -6 49 14 25 13 28 -7
26 -12 0 -19 7 -21 22 -2 12 2 22 8 22 6 0 8 -4 5 -10 -3 -5 1 -10 9 -10 9 0
16 7 16 15 0 12 -13 15 -55 15 l-55 0 0 -80 c0 -64 -3 -80 -15 -80 -12 0 -15
16 -15 80 0 76 -1 80 -22 80 -13 0 -34 3 -47 7 -21 5 -22 4 -12 -15 20 -38 14
-100 -14 -127 -55 -56 -125 -10 -125 81 0 27 -21 32 -39 10 -9 -10 -8 -15 4
-20 19 -7 20 -60 0 -76 -8 -6 -32 -14 -55 -17 -45 -6 -43 -13 -42 105 1 55 -1
62 -18 62 -18 0 -20 -6 -17 -76 3 -66 0 -78 -19 -99 -16 -17 -25 -20 -33 -12
-16 16 -14 37 4 37 22 0 19 10 -20 64 l-35 50 0 -67 c0 -51 -3 -67 -14 -67 -8
0 -17 -6 -19 -12 -4 -10 -8 -9 -16 2 -8 11 -6 19 9 30 15 12 19 27 18 83 0 59
-2 67 -19 67 -17 0 -19 -7 -17 -64z m3196 -9 c24 4 32 2 32 -10 0 -8 -11 -18
-25 -21 -14 -4 -25 -10 -25 -14 0 -4 -14 -7 -31 -7 -32 0 -56 26 -43 47 4 7 3
8 -4 4 -7 -4 -12 -3 -12 3 0 16 24 19 50 6 14 -7 40 -10 58 -8z m778 7 c-3 -9
-6 -23 -6 -32 -1 -16 -1 -16 -10 0 -11 18 -3 48 12 48 6 0 7 -7 4 -16z m374 6
c13 -8 13 -10 -2 -10 -9 0 -20 5 -23 10 -8 13 5 13 25 0z m40 -10 c0 -5 -5
-10 -11 -10 -5 0 -7 5 -4 10 3 6 8 10 11 10 2 0 4 -4 4 -10z m-540 -29 c-14
-26 -23 -31 -39 -21 -21 13 -5 40 24 40 22 0 24 -3 15 -19z m207 13 c-3 -3
-12 -4 -19 -1 -8 3 -5 6 6 6 11 1 17 -2 13 -5z m106 -20 c-7 -20 -20 -17 -26
5 -3 14 0 17 14 14 10 -3 15 -11 12 -19z m247 -7 c0 -7 9 -20 20 -30 24 -21
28 -88 5 -107 -13 -11 -15 -7 -16 26 -1 22 -1 42 0 47 2 16 -18 5 -24 -13 -9
-29 -26 -14 -19 16 4 17 2 24 -9 24 -8 0 -17 7 -21 15 -3 8 -1 15 3 15 5 0 11
-6 14 -12 2 -8 9 -5 18 10 15 24 29 29 29 9z m-116 -21 c-1 -12 3 -15 17 -11
20 7 25 -10 20 -65 -5 -54 -51 -67 -87 -24 -18 21 -21 31 -13 56 15 55 67 91
63 44z m-304 4 c0 -5 -2 -10 -4 -10 -3 0 -8 5 -11 10 -3 6 -1 10 4 10 6 0 11
-4 11 -10z m107 -84 c8 -35 7 -48 -2 -56 -7 -6 -15 -24 -19 -40 -3 -18 -12
-30 -21 -30 -8 0 -15 -4 -15 -10 0 -5 -7 -10 -15 -10 -8 0 -15 -6 -15 -14 0
-8 -7 -17 -16 -20 -10 -4 -13 -13 -9 -28 5 -21 5 -21 -8 -6 -14 17 -62 14 -51
-3 3 -5 -6 -9 -19 -9 -21 0 -25 6 -30 45 -4 24 -12 53 -19 64 -9 15 -8 22 6
36 18 19 18 19 33 -9 10 -19 11 -18 17 2 9 27 22 28 36 3 14 -28 13 -35 -12
-46 -29 -13 -33 -31 -8 -38 13 -3 20 0 20 10 0 8 5 11 10 8 6 -4 8 -11 5 -16
-4 -5 -3 -9 0 -9 10 0 50 52 50 65 0 5 6 16 13 23 17 18 15 42 -3 42 -24 0
-18 28 7 32 12 2 23 9 26 16 2 7 -2 11 -9 10 -8 -2 -13 11 -15 35 l-3 38 28
-20 c19 -13 31 -34 38 -65z m803 54 c0 -5 -5 -10 -11 -10 -5 0 -7 5 -4 10 3 6
8 10 11 10 2 0 4 -4 4 -10z m-690 -29 c0 -18 -33 -35 -44 -23 -7 6 23 42 36
42 4 0 8 -8 8 -19z m-466 -7 c8 -22 8 -24 -8 -24 -7 0 -19 -7 -26 -15 -15 -18
-40 -20 -40 -3 0 12 48 57 61 58 4 0 10 -7 13 -16z m844 -10 c2 -11 -6 -28
-18 -39 -24 -22 -36 -15 -20 14 7 14 7 21 0 21 -5 0 -10 7 -10 16 0 24 44 14
48 -12z m-4591 -10 c-3 -3 -12 -4 -19 -1 -8 3 -5 6 6 6 11 1 17 -2 13 -5z
m4503 -4 c0 -5 -2 -10 -4 -10 -3 0 -8 5 -11 10 -3 6 -1 10 4 10 6 0 11 -4 11
-10z m-3787 -14 c10 -1 25 -10 34 -19 13 -13 14 -19 3 -31 -18 -23 -38 -20
-71 11 -36 34 -39 58 -6 48 12 -3 30 -8 40 -9z m-588 -15 l40 -9 -35 -1 c-19
0 -48 6 -65 14 -33 16 -25 15 60 -4z m4485 -11 c0 -5 6 -7 13 -4 16 6 55 -22
44 -32 -4 -5 -17 -3 -28 4 -11 7 -23 11 -27 8 -13 -8 -35 11 -28 23 9 14 26
15 26 1z m-940 -21 c0 -6 -4 -7 -10 -4 -5 3 -10 11 -10 16 0 6 5 7 10 4 6 -3
10 -11 10 -16z m-3290 -9 c0 -5 -2 -10 -4 -10 -3 0 -8 5 -11 10 -3 6 -1 10 4
10 6 0 11 -4 11 -10z m230 0 c11 -7 6 -10 -20 -10 -26 0 -31 3 -20 10 8 5 17
10 20 10 3 0 12 -5 20 -10z m-8 -70 c3 -9 -3 -26 -13 -39 l-19 -23 0 30 c0 17
-4 32 -10 34 -5 2 -7 13 -4 25 6 21 7 21 23 5 10 -9 20 -24 23 -32z m88 30 c0
-5 -2 -10 -4 -10 -3 0 -8 5 -11 10 -3 6 -1 10 4 10 6 0 11 -4 11 -10z m3432
-16 c-2 -5 -10 -8 -18 -6 -19 4 -18 -34 1 -42 8 -3 15 -15 15 -26 0 -24 8 -25
40 -3 17 12 25 13 28 5 7 -22 20 -13 27 18 5 24 12 30 34 30 15 0 33 6 40 13
12 10 13 9 7 -7 -5 -15 -2 -17 19 -12 14 4 25 4 25 1 0 -12 -23 -51 -49 -81
-14 -18 -42 -51 -61 -75 -19 -24 -50 -58 -67 -75 -47 -44 -45 -56 13 -68 29
-6 33 -4 43 25 9 26 15 30 33 25 13 -3 26 -6 31 -6 13 0 8 -27 -8 -40 -8 -7
-15 -19 -15 -26 0 -17 32 -18 48 -2 16 16 34 -8 26 -34 -4 -13 0 -18 17 -18
19 0 20 -2 8 -16 -11 -14 -11 -18 4 -29 25 -18 21 -33 -12 -40 -16 -3 -32 -13
-35 -20 -3 -8 -12 -12 -20 -9 -9 3 -29 1 -46 -4 -28 -10 -30 -9 -30 14 0 22
-2 23 -20 14 -20 -11 -30 3 -10 15 16 10 12 32 -7 39 -10 4 -31 13 -48 22 -16
8 -41 20 -55 27 -16 8 -26 23 -28 40 -2 16 -10 31 -18 34 -35 13 -2 70 35 58
10 -3 22 -1 26 5 4 6 15 8 26 5 27 -9 24 10 -3 22 -16 7 -28 7 -40 -1 -25 -15
-47 7 -29 28 8 9 10 27 6 44 -5 26 -3 30 19 36 15 3 26 13 26 21 0 17 -16 20
-25 5 -10 -15 -35 -12 -35 5 0 8 -7 15 -15 15 -25 0 -17 17 11 24 14 4 33 20
42 35 14 25 52 38 44 15z m542 -26 c9 -34 8 -38 -12 -38 -14 0 -19 8 -19 30 0
35 22 40 31 8z m-964 -5 c0 -10 -61 -45 -67 -40 -2 3 11 14 29 25 40 24 38 24
38 15z m780 -14 c0 -11 5 -17 10 -14 6 3 10 1 10 -4 0 -14 -17 -14 -25 -1 -4
6 -11 8 -16 5 -11 -7 -11 -3 -3 19 9 23 24 20 24 -5z m-4020 -9 c0 -11 -7 -20
-15 -20 -8 0 -15 9 -15 20 0 11 7 20 15 20 8 0 15 -9 15 -20z m2965 10 c3 -5
2 -10 -4 -10 -5 0 -13 5 -16 10 -3 6 -2 10 4 10 5 0 13 -4 16 -10z m300 -60
c3 -5 -1 -10 -10 -10 -9 0 -13 5 -10 10 3 6 8 10 10 10 2 0 7 -4 10 -10z
m-3465 -20 c0 -5 -18 -10 -40 -10 -36 0 -40 -2 -40 -25 0 -21 5 -25 30 -25 17
0 30 -4 30 -10 0 -5 -13 -10 -30 -10 -28 0 -30 -3 -30 -36 0 -36 0 -36 40 -32
28 2 40 0 40 -9 0 -9 -17 -13 -55 -13 l-55 0 0 90 0 90 55 0 c30 0 55 -4 55
-10z m52 -56 c3 -66 3 -67 37 -78 54 -17 51 -36 -6 -36 -52 0 -80 23 -62 51 5
8 9 40 9 72 0 79 18 72 22 -9z m258 57 c0 -6 -15 -11 -32 -13 -44 -4 -43 -30
2 -60 40 -27 49 -58 24 -82 -17 -18 -83 -19 -74 -1 3 5 16 8 29 6 22 -3 40 12
41 32 0 4 -16 17 -35 28 -39 23 -54 61 -35 84 14 16 80 21 80 6z m128 -7 c44
-30 14 -94 -45 -94 -20 0 -23 -5 -23 -35 0 -19 -4 -35 -10 -35 -6 0 -10 37
-10 90 l0 90 33 0 c18 0 43 -7 55 -16z m152 6 c0 -5 -18 -10 -40 -10 -36 0
-40 -2 -40 -25 0 -20 5 -25 24 -25 14 0 28 -4 31 -10 4 -6 -7 -10 -24 -10 -29
0 -31 -3 -31 -35 0 -34 1 -35 40 -35 22 0 40 -4 40 -10 0 -5 -22 -10 -50 -10
l-50 0 0 90 0 90 50 0 c28 0 50 -4 50 -10z m140 -4 c0 -9 -8 -12 -25 -8 -37 7
-65 -23 -65 -68 0 -48 28 -75 70 -67 31 7 42 -6 14 -17 -59 -22 -104 14 -104
83 0 57 29 91 77 91 21 0 33 -5 33 -14z m70 -76 c0 -53 -4 -90 -10 -90 -6 0
-10 37 -10 90 0 53 4 90 10 90 6 0 10 -37 10 -90z m139 -7 c23 -62 27 -83 17
-83 -8 0 -16 9 -19 20 -4 15 -14 20 -40 20 -27 0 -37 -5 -42 -20 -3 -11 -11
-20 -16 -20 -12 0 -7 17 29 112 15 37 30 64 34 60 4 -4 20 -44 37 -89z m71 17
l0 -80 46 0 c27 0 43 -4 39 -10 -3 -5 -28 -10 -56 -10 l-49 0 0 90 c0 53 4 90
10 90 6 0 10 -33 10 -80z m3194 68 c3 -7 7 -30 10 -51 l5 -38 -29 23 c-37 30
-43 44 -24 63 19 18 33 19 38 3z m-64 -49 c0 -6 -4 -7 -10 -4 -5 3 -10 11 -10
16 0 6 5 7 10 4 6 -3 10 -11 10 -16z m-2985 0 c10 -15 -1 -23 -20 -15 -9 3
-13 10 -10 16 8 13 22 13 30 -1z m2137 -106 c13 -27 8 -36 -16 -27 -9 4 -16
17 -16 33 0 30 13 50 18 29 2 -7 8 -23 14 -35z m-2132 8 c0 -14 -18 -23 -30
-16 -6 4 -8 11 -5 16 8 12 35 12 35 0z m2537 -55 c9 -19 13 -41 10 -49 -7 -19
-71 -31 -97 -17 -17 9 -22 7 -29 -12 -8 -21 -10 -21 -16 -5 -10 23 -3 29 53
48 40 14 47 20 47 43 -1 36 12 33 32 -8z m-487 -18 c0 -6 -7 -5 -15 2 -8 7
-15 17 -15 22 0 6 7 5 15 -2 8 -7 15 -17 15 -22z m-3410 14 c0 -5 -18 -14 -40
-21 -46 -14 -47 -18 -21 -69 24 -47 37 -112 23 -112 -6 0 -14 9 -17 20 -5 15
-15 20 -40 20 -25 0 -35 -5 -40 -20 -6 -19 -25 -28 -25 -12 0 5 11 37 25 72
14 35 25 72 25 81 0 13 14 22 48 32 59 18 62 19 62 9z m329 -1 c8 -5 9 -11 3
-15 -14 -8 -43 4 -36 15 7 11 15 11 33 0z m465 -20 c3 -5 -3 -11 -14 -14 -23
-6 -27 -37 -5 -37 8 0 15 -4 15 -10 0 -5 -7 -10 -15 -10 -12 0 -15 -13 -15
-55 0 -30 -4 -55 -10 -55 -5 0 -10 24 -10 54 0 34 -5 57 -12 60 -10 5 -10 7 0
12 6 3 12 11 12 17 0 13 30 47 41 47 4 0 10 -4 13 -9z m2646 -1 c0 -5 -4 -10
-10 -10 -5 0 -10 5 -10 10 0 6 5 10 10 10 6 0 10 -4 10 -10z m-2960 -5 c0 -3
-16 -37 -35 -75 -19 -38 -35 -72 -35 -75 0 -3 18 -5 40 -5 22 0 40 -4 40 -10
0 -5 -25 -10 -55 -10 -30 0 -55 2 -55 5 0 3 16 37 35 75 19 38 35 72 35 75 0
3 -16 5 -35 5 -19 0 -35 5 -35 10 0 6 23 10 50 10 28 0 50 -2 50 -5z m-377
-25 c-4 -16 0 -20 18 -21 23 0 23 -1 3 -9 -15 -6 -21 -16 -19 -32 1 -13 3 -33
4 -45 0 -13 7 -23 16 -23 8 0 15 -4 15 -10 0 -13 -21 -13 -54 0 -18 6 -26 17
-26 33 0 27 -17 47 -40 47 -25 0 -17 40 11 56 37 21 45 16 19 -11 -13 -14 -18
-25 -11 -25 17 0 41 25 41 44 0 9 6 16 14 16 9 0 12 -7 9 -20z m165 -38 c6 -9
12 -31 12 -49 0 -63 -88 -85 -110 -27 -15 38 -12 53 15 80 27 27 59 26 83 -4z
m420 6 c7 -7 12 -29 12 -49 0 -58 -58 -90 -94 -53 -18 18 -21 66 -6 95 12 22
68 27 88 7z m2815 -21 c3 -7 -4 -19 -15 -26 -18 -11 -20 -11 -15 2 3 8 0 20
-6 26 -8 8 -6 11 10 11 11 0 23 -6 26 -13z m1028 -25 c10 -25 2 -27 -25 -7
-10 7 -15 19 -11 25 10 16 27 8 36 -18z m-841 -11 c0 -6 14 -18 30 -28 17 -9
30 -21 30 -25 0 -11 -69 34 -74 50 -3 6 -1 12 4 12 6 0 10 -4 10 -9z m380 -57
c-21 -53 -56 -69 -77 -35 -11 17 -9 20 17 26 16 3 34 13 41 21 19 23 29 16 19
-12z m295 -24 c0 -26 -5 -45 -12 -47 -18 -6 -26 21 -19 63 10 49 31 38 31 -16z
m-1515 -30 c0 -5 -4 -10 -10 -10 -5 0 -10 5 -10 10 0 6 5 10 10 10 6 0 10 -4
10 -10z m-2820 -21 c0 -5 -13 -6 -29 -3 -36 8 -61 -24 -61 -78 0 -47 32 -73
76 -62 20 5 26 3 19 -4 -37 -39 -107 -10 -119 48 -8 40 16 98 45 108 25 10 69
4 69 -9z m234 15 c25 -10 19 -20 -11 -19 -40 0 -37 -34 4 -60 35 -22 47 -49
33 -75 -11 -20 -51 -33 -74 -24 -24 9 -19 27 5 21 53 -14 68 33 19 61 -17 9
-33 25 -36 35 -8 25 4 55 24 60 9 3 18 5 19 6 1 0 8 -2 17 -5z m-89 -14 c-3
-5 -24 -10 -46 -10 -35 0 -39 -3 -39 -25 0 -21 5 -25 30 -25 17 0 30 -4 30
-10 0 -5 -13 -10 -30 -10 -27 0 -30 -3 -30 -29 0 -28 3 -30 43 -33 55 -4 45
-20 -13 -22 l-45 -1 -3 88 -3 87 56 0 c35 0 54 -4 50 -10z m629 -12 c8 -13 8
-23 -1 -37 -10 -15 -9 -22 2 -31 18 -15 19 -54 3 -68 -7 -6 -31 -12 -53 -14
l-40 -3 -3 88 -3 88 42 -3 c27 -2 46 -9 53 -20z m152 15 c-9 -9 -14 -10 -56
-12 -25 -1 -30 -5 -30 -26 0 -21 5 -25 30 -25 17 0 30 -4 30 -10 0 -5 -13 -10
-30 -10 -27 0 -30 -3 -30 -30 0 -28 2 -30 39 -30 22 0 43 -4 46 -10 4 -6 -15
-10 -49 -10 l-56 0 0 85 0 85 57 0 c31 0 53 -3 49 -7z m3504 -2 c0 -6 -4 -13
-10 -16 -5 -3 -10 1 -10 9 0 9 5 16 10 16 6 0 10 -4 10 -9z m-4012 -42 c15 -1
15 -2 0 -6 -14 -3 -18 -15 -18 -49 0 -37 4 -46 22 -53 14 -5 17 -10 10 -15 -6
-4 -21 -2 -32 4 -16 9 -20 21 -20 60 0 33 -4 50 -12 50 -9 0 -9 3 -2 8 6 4 14
16 19 27 8 19 9 19 12 -2 3 -13 12 -24 21 -24z m150 -17 c32 -41 4 -105 -47
-105 -38 0 -49 9 -57 50 -5 26 -1 37 20 58 28 28 60 27 84 -3z m2182 4 c0 -8
-7 -16 -15 -20 -13 -4 -14 -2 -5 14 13 23 20 26 20 6z m1447 -1 c1 -5 -15 -11
-37 -12 -45 -1 -50 3 -17 17 26 11 49 9 54 -5z m-227 -45 c-19 -13 -30 -13
-30 0 0 6 10 10 23 10 18 0 19 -2 7 -10z m-1310 -55 c-44 -44 -50 -55 -37 -61
22 -8 22 -30 0 -38 -10 -4 -14 -4 -11 0 9 8 -16 34 -34 34 -7 1 4 16 25 34 20
18 37 38 37 43 0 13 40 42 60 42 8 1 -10 -24 -40 -54z m2426 28 c1 -13 -3 -23
-8 -23 -5 0 -4 -9 2 -19 15 -30 12 -39 -13 -34 -14 3 -29 -2 -36 -11 -8 -9
-22 -16 -33 -16 -18 0 -19 4 -14 33 4 17 8 43 9 57 2 33 14 41 57 38 28 -3 35
-7 36 -25z m84 8 c0 -12 -20 -25 -27 -18 -7 7 6 27 18 27 5 0 9 -4 9 -9z
m-247 -36 c-6 -17 -25 -15 -31 3 -2 7 5 12 17 12 14 0 19 -5 14 -15z m-949
-86 c6 -5 3 -23 -8 -46 -20 -41 -22 -40 -52 33 l-15 36 33 -7 c18 -4 37 -11
42 -16z m416 -4 c13 -14 21 -27 18 -30 -8 -8 -38 6 -38 17 0 6 -8 17 -17 24
-16 11 -16 13 -2 14 8 0 26 -11 39 -25z m500 15 c0 -5 -4 -10 -10 -10 -5 0
-10 5 -10 10 0 6 5 10 10 10 6 0 10 -4 10 -10z m-642 -41 c30 -22 45 -42 52
-70 10 -35 30 -55 30 -29 0 5 11 9 24 8 29 -3 39 -38 30 -102 -7 -45 -27 -74
-61 -87 -12 -4 -25 -20 -29 -34 -5 -20 -20 -33 -61 -51 -31 -13 -60 -24 -66
-24 -10 0 -4 134 9 192 5 21 2 27 -15 33 -25 8 -27 45 -7 122 23 86 30 89 94
42z m810 3 c2 -7 -3 -12 -12 -12 -9 0 -16 7 -16 16 0 17 22 14 28 -4z m42 -8
c0 -8 5 -13 11 -11 6 1 13 -3 15 -8 3 -6 -9 -12 -26 -13 -31 -2 -37 9 -24 42
7 18 24 12 24 -10z m-1100 -48 c0 -16 -21 -56 -30 -56 -14 0 -12 47 3 53 16 7
27 8 27 3z m-3940 -150 c0 -8 -11 -11 -28 -8 -39 5 -62 -20 -62 -67 0 -51 27
-75 71 -66 24 5 30 4 27 -6 -3 -8 -22 -15 -45 -17 -32 -2 -46 2 -62 19 -38 41
-22 130 27 155 27 13 72 7 72 -10z m-162 2 c17 -17 15 -63 -3 -78 -13 -11 -13
-15 3 -39 32 -45 34 -51 18 -51 -8 0 -24 16 -36 35 -12 19 -28 35 -36 35 -9 0
-14 -11 -14 -35 0 -23 -5 -35 -13 -35 -10 0 -15 19 -16 70 -3 98 2 110 48 110
20 0 42 -5 49 -12z m362 -62 c0 -54 -4 -79 -16 -90 -20 -20 -58 -21 -74 -1
-17 20 -5 32 15 15 32 -26 45 -5 45 75 0 60 3 75 15 75 12 0 15 -15 15 -74z
m125 -3 c16 -43 30 -84 33 -90 2 -7 -3 -13 -11 -13 -8 0 -17 9 -20 20 -7 29
-60 27 -80 -2 -8 -13 -18 -20 -22 -16 -7 7 56 178 66 178 4 0 19 -35 34 -77z
m165 63 c0 -9 -8 -12 -25 -8 -37 7 -65 -23 -65 -68 0 -49 27 -74 69 -65 18 4
31 3 31 -3 0 -13 -25 -22 -59 -22 -68 0 -95 106 -41 160 23 23 90 28 90 6z
m159 -12 c46 -58 13 -154 -53 -154 -48 0 -71 30 -70 91 1 60 23 89 70 89 23 0
38 -7 53 -26z m145 4 c8 -13 8 -23 -1 -37 -10 -15 -9 -22 2 -31 20 -16 19 -55
-1 -74 -9 -9 -32 -16 -55 -16 l-39 0 0 91 0 90 41 -3 c27 -2 46 -9 53 -20z
m126 12 c0 -5 -13 -10 -30 -10 -44 0 -41 -34 5 -61 27 -16 35 -28 35 -49 0
-15 -6 -33 -14 -39 -17 -14 -82 -11 -78 4 2 6 12 9 23 7 21 -4 49 13 49 29 0
5 -18 20 -40 34 -41 26 -48 42 -30 76 8 13 21 19 45 19 19 0 35 -4 35 -10z
m3835 -53 c7 -25 -9 -77 -23 -77 -6 0 -8 53 -3 93 2 16 21 5 26 -16z m102 -23
c-9 -9 -28 6 -21 18 4 6 10 6 17 -1 6 -6 8 -13 4 -17z m-27 -79 c0 -8 -4 -15
-10 -15 -5 0 -10 7 -10 15 0 8 5 15 10 15 6 0 10 -7 10 -15z m-12 -79 c5 -23
-14 -44 -28 -30 -12 12 -1 56 14 51 6 -2 13 -12 14 -21z m-4754 8 c31 -12 18
-33 -17 -27 -44 7 -67 -16 -67 -67 0 -30 5 -43 24 -55 13 -8 31 -13 40 -9 17
7 23 54 6 54 -5 0 -10 5 -10 10 0 6 11 10 25 10 23 0 25 -4 25 -44 0 -37 -4
-45 -22 -50 -43 -11 -69 -6 -93 19 -66 65 5 191 89 159z m259 -25 c10 -13 17
-38 17 -64 0 -74 -53 -115 -110 -85 -44 24 -43 133 1 164 27 18 69 11 92 -15z
m-456 -55 l32 -39 1 58 c0 31 4 57 9 57 14 0 20 -60 13 -124 l-7 -58 -45 62
-45 62 -3 -61 c-5 -97 -22 -72 -22 32 1 103 -7 102 67 11z m575 -5 l27 -34 1
58 c0 44 3 57 15 57 12 0 15 -17 15 -90 0 -49 -3 -90 -7 -90 -5 0 -28 29 -53
63 l-45 62 -3 -62 c-5 -98 -22 -74 -22 30 l1 92 22 -26 c12 -14 34 -41 49 -60z
m4673 29 c19 -13 37 -29 39 -35 7 -17 -36 -17 -52 -1 -9 9 -13 7 -18 -5 -8
-22 -40 -22 -52 -1 -6 11 -11 13 -16 5 -14 -22 -26 -11 -26 24 0 35 0 35 45
35 30 0 57 -8 80 -22z m-36 -199 c-10 -6 -11 -9 -1 -9 6 0 12 -7 12 -15 0 -8
-7 -15 -15 -15 -16 0 -19 17 -9 44 3 9 11 13 16 10 6 -4 5 -10 -3 -15z m-857
-39 c14 0 18 -5 14 -15 -3 -9 0 -15 9 -15 19 0 19 -17 0 -36 -13 -14 -15 -13
-16 3 0 11 -2 13 -6 5 -4 -10 -11 -8 -29 9 -28 26 -33 65 -8 55 9 -3 25 -6 36
-6z m283 -53 c11 -11 10 -15 -4 -24 -26 -16 -49 0 -32 21 16 19 19 20 36 3z
m605 -21 c0 -12 5 -27 12 -34 9 -9 9 -15 0 -24 -7 -7 -12 -8 -12 -4 0 5 -7 3
-15 -4 -20 -16 -32 -4 -37 35 -2 25 0 29 16 27 11 -2 15 1 11 7 -8 14 3 33 16
26 5 -4 9 -16 9 -29z m-66 -125 c-9 -11 -24 15 -23 42 l1 32 12 -35 c8 -19 12
-37 10 -39z m-154 50 c0 -12 -28 -22 -34 -12 -3 5 -3 11 1 15 9 9 33 7 33 -3z
m84 -17 c3 -8 2 -12 -4 -9 -6 3 -10 -1 -10 -9 0 -9 -4 -16 -10 -16 -13 0 -13
6 0 31 13 23 16 24 24 3z m-5034 -23 c0 -5 -12 -11 -27 -13 -28 -3 -28 -4 -31
-80 -4 -100 -22 -102 -22 -3 l0 75 -30 0 c-20 0 -30 5 -30 15 0 12 14 15 70
15 39 0 70 -4 70 -9z m203 -23 c10 -12 17 -37 17 -60 0 -52 -35 -88 -85 -88
l-35 0 0 90 0 89 43 -5 c25 -3 49 -14 60 -26z m145 4 c16 -21 15 -37 -4 -57
-16 -15 -15 -19 5 -56 29 -51 9 -51 -24 1 -14 22 -29 40 -35 40 -5 0 -10 -17
-12 -37 -2 -20 -8 -38 -14 -40 -16 -5 -16 159 -1 169 17 11 70 -1 85 -20z m72
-62 c0 -53 -4 -90 -10 -90 -6 0 -10 37 -10 90 0 53 4 90 10 90 6 0 10 -37 10
-90z m75 27 c10 -28 21 -56 25 -60 3 -4 15 20 25 53 17 56 30 78 40 68 6 -6
-56 -178 -64 -178 -7 0 -61 149 -61 168 0 27 19 0 35 -51z m145 -27 c0 -53 -4
-90 -10 -90 -6 0 -10 37 -10 90 0 53 4 90 10 90 6 0 10 -37 10 -90z m170 -6
c0 -46 -3 -84 -8 -84 -4 0 -25 27 -47 60 -22 33 -43 60 -47 60 -5 0 -8 -27 -8
-60 0 -33 -4 -60 -10 -60 -6 0 -10 35 -10 85 0 47 4 85 8 85 5 0 26 -25 48
-55 21 -30 42 -55 47 -55 4 0 7 27 7 61 0 37 4 58 10 54 6 -3 10 -44 10 -91z
m134 90 c27 -10 17 -24 -13 -18 -38 8 -71 -24 -71 -68 0 -40 25 -68 62 -68 23
0 28 4 28 25 0 14 -4 25 -10 25 -5 0 -10 5 -10 10 0 6 9 10 21 10 18 0 20 -5
17 -42 -3 -43 -3 -43 -45 -46 -56 -4 -83 22 -83 79 0 49 14 77 43 89 27 11 41
12 61 4z m-994 -297 c8 -31 17 -57 20 -57 3 0 13 28 24 63 l19 62 18 -58 c9
-33 20 -61 23 -64 3 -3 13 22 22 56 10 33 21 61 26 61 4 0 8 -3 8 -7 0 -17
-45 -163 -51 -163 -3 0 -13 25 -23 56 -20 63 -27 61 -46 -8 -7 -27 -17 -48
-21 -48 -5 0 -9 3 -9 8 0 4 -11 42 -25 85 -15 50 -20 77 -12 74 7 -2 19 -29
27 -60z m290 53 c44 -24 45 -136 0 -160 -33 -17 -68 -12 -85 14 -55 84 5 189
85 146z m152 -2 c26 -21 29 -47 9 -67 -18 -18 -18 -20 6 -60 31 -53 11 -54
-22 -1 -14 22 -32 40 -40 40 -11 0 -15 -11 -15 -40 0 -22 -4 -40 -10 -40 -6 0
-10 37 -10 90 l0 90 33 0 c18 0 40 -6 49 -12z m84 -49 c3 -105 0 -99 44 -99
22 0 40 -4 40 -10 0 -5 -24 -10 -53 -10 l-53 0 -1 90 c0 64 3 90 11 87 6 -2
12 -27 12 -58z m201 35 c22 -22 25 -32 20 -71 -6 -56 -22 -73 -76 -80 l-41 -6
0 92 0 91 35 0 c25 0 44 -8 62 -26z m103 8 c0 -11 -9 -27 -20 -37 -11 -10 -20
-13 -20 -7 0 6 5 14 10 17 8 5 8 11 1 19 -12 14 -5 26 16 26 7 0 13 -8 13 -18z
m120 9 c0 -5 -12 -11 -27 -13 -42 -5 -41 -34 1 -59 27 -16 36 -28 36 -48 0
-15 -5 -32 -12 -39 -16 -16 -78 -16 -78 1 0 7 13 12 33 12 47 0 48 33 2 63
-37 23 -46 57 -23 80 14 14 68 16 68 3z m4080 -17 c0 -8 -4 -12 -10 -9 -5 3
-10 10 -10 16 0 5 5 9 10 9 6 0 10 -7 10 -16z m-784 -115 c-34 -27 -44 -24
-16 6 12 13 27 22 32 19 5 -3 -2 -14 -16 -25z m-2031 11 c-3 -5 -11 -10 -16
-10 -6 0 -7 5 -4 10 3 6 11 10 16 10 6 0 7 -4 4 -10z m-34 -87 c-8 -15 -10
-15 -11 -2 0 17 10 32 18 25 2 -3 -1 -13 -7 -23z m-1351 -46 c0 -32 2 -33 31
-29 20 3 34 0 40 -9 12 -19 11 -119 -1 -119 -5 0 -10 24 -10 54 0 41 -4 55
-16 60 -28 11 -44 -13 -44 -65 0 -27 -4 -49 -10 -49 -6 0 -10 38 -10 95 0 57
4 95 10 95 6 0 10 -15 10 -33z m410 -45 c0 -47 5 -83 12 -90 17 -17 2 -28 -17
-12 -11 9 -15 33 -15 96 0 49 4 84 10 84 6 0 10 -33 10 -78z m-1110 58 c0 -5
-13 -10 -30 -10 l-30 0 0 -75 c0 -43 -4 -75 -10 -75 -6 0 -10 32 -10 75 l0 75
-60 0 -59 0 -3 -75 c-4 -100 -22 -102 -26 -2 -3 74 -4 77 -27 77 -14 0 -25 5
-25 10 0 6 53 10 140 10 87 0 140 -4 140 -10z m125 0 c-3 -5 -24 -10 -46 -10
-35 0 -39 -3 -39 -25 0 -21 5 -25 30 -25 17 0 30 -4 30 -10 0 -5 -13 -10 -30
-10 -28 0 -30 -3 -30 -35 0 -34 1 -35 40 -35 22 0 40 -4 40 -8 0 -5 -22 -8
-50 -8 l-50 1 0 87 0 88 56 0 c34 0 53 -4 49 -10z m105 -1 c0 -6 -7 -9 -15 -5
-8 3 -22 3 -30 0 -26 -10 -16 -41 20 -63 28 -16 35 -27 35 -50 0 -35 -29 -56
-66 -47 -35 9 -30 21 9 21 25 0 33 5 35 21 2 16 -7 27 -32 42 -38 22 -48 56
-24 80 15 15 68 16 68 1z m170 1 c0 -5 -13 -10 -30 -10 l-30 0 0 -80 c0 -47
-4 -80 -10 -80 -6 0 -10 33 -10 80 l0 80 -30 0 c-16 0 -30 5 -30 10 0 6 30 10
70 10 40 0 70 -4 70 -10z m115 -86 l12 -39 18 38 c10 20 22 37 25 37 3 0 14
-17 25 -37 l18 -38 14 43 c8 23 19 42 24 42 7 0 -26 -105 -37 -119 -2 -2 -11
13 -20 33 -10 20 -21 36 -25 36 -3 0 -12 -14 -19 -30 -7 -17 -16 -33 -20 -35
-5 -3 -17 22 -29 56 -12 37 -16 59 -9 57 6 -2 17 -22 23 -44z m391 38 c6 -4
14 -17 18 -29 7 -22 4 -23 -38 -23 -25 0 -48 -5 -51 -10 -12 -19 17 -42 47
-38 30 5 38 -6 12 -16 -41 -16 -84 15 -84 61 0 48 57 81 96 55z m142 -4 c7 -7
12 -20 12 -30 0 -17 -26 -24 -67 -19 -19 2 -26 -19 -12 -35 7 -9 23 -14 36
-11 32 6 40 -11 9 -19 -35 -9 -61 3 -75 32 -12 26 -7 58 11 82 13 15 70 16 86
0z m182 1 c0 -6 -8 -8 -19 -4 -35 11 -34 -16 0 -45 29 -24 32 -31 23 -47 -13
-21 -65 -25 -72 -5 -3 9 3 11 21 7 37 -10 41 11 7 35 -28 20 -39 48 -23 63 11
11 63 8 63 -4z m750 -193 c0 -3 -4 -8 -10 -11 -5 -3 -10 -1 -10 4 0 6 5 11 10
11 6 0 10 -2 10 -4z m2360 -41 c30 -9 66 -18 78 -20 29 -4 36 -11 27 -24 -7
-13 -42 -15 -49 -3 -3 5 -15 8 -28 7 -13 -1 -31 2 -41 7 -10 5 -30 12 -45 14
-31 6 -42 12 -42 25 0 13 38 11 100 -6z m-390 -10 c0 -9 -9 -15 -25 -15 -29 0
-34 16 -7 23 30 8 32 7 32 -8z m166 -62 c0 -11 6 -17 17 -17 9 1 17 -3 17 -9
0 -6 6 -2 14 8 12 16 16 17 30 6 9 -7 16 -22 16 -33 0 -16 -3 -17 -21 -7 -22
11 -38 0 -39 -27 0 -7 -7 -14 -15 -18 -8 -3 -18 -23 -21 -45 -4 -23 -13 -49
-20 -58 -12 -17 -13 -16 -14 9 0 15 -7 47 -15 71 -14 43 -14 46 11 91 27 48
43 59 40 29z m328 -9 c3 -9 6 -25 6 -37 0 -24 73 -77 105 -77 21 0 44 -28 45
-54 0 -11 10 -33 23 -50 28 -38 57 -98 57 -120 0 -37 -69 5 -70 42 0 8 -15 39
-32 69 l-33 54 -48 -3 -48 -3 27 21 c26 22 27 22 8 48 -19 25 -38 33 -47 19
-2 -5 -2 -2 0 6 2 7 -1 19 -6 25 -5 6 -12 26 -16 44 -5 25 -3 32 8 32 8 0 18
-7 21 -16z m-2593 -37 c-10 -9 -11 -8 -5 6 3 10 9 15 12 12 3 -3 0 -11 -7 -18z
m47 -17 c-7 -11 -18 -22 -24 -24 -17 -7 -55 5 -49 15 3 4 11 6 18 3 7 -2 21 4
31 15 23 25 40 18 24 -9z m2374 -67 c8 -10 6 -13 -6 -13 -12 0 -16 9 -15 43 2
34 3 36 6 12 3 -16 9 -36 15 -42z m601 12 c2 -9 -59 -55 -74 -55 -5 0 -9 5 -9
10 0 6 7 10 16 10 10 0 14 6 10 15 -3 8 3 19 12 25 20 11 42 9 45 -5z m-113
-27 c0 -4 -12 -3 -26 2 -32 13 -37 12 -29 0 3 -5 0 -10 -9 -10 -11 0 -16 24
-7 36 4 4 71 -23 71 -28z m-1930 -13 c1 -11 -78 -30 -87 -21 -3 3 0 12 7 21
14 17 79 17 80 0z m-957 -69 c-1 -19 2 -23 18 -19 14 4 19 0 21 -18 2 -43 3
-48 11 -55 11 -12 8 -54 -4 -54 -6 0 -9 -7 -5 -15 4 -12 0 -14 -19 -9 -22 5
-25 2 -31 -35 -4 -23 -11 -41 -16 -41 -5 0 -8 8 -6 18 3 20 -18 52 -33 52 -5
0 -9 -9 -9 -20 0 -11 -5 -20 -11 -20 -7 0 -9 8 -5 20 16 53 18 65 7 50 -9 -13
-11 -13 -11 0 0 9 -9 22 -19 29 -22 16 -17 43 6 34 11 -4 14 -2 9 5 -4 7 -2
12 3 12 6 0 11 5 11 11 0 6 -9 8 -20 4 -11 -4 -20 -2 -20 4 0 6 4 11 9 11 5 0
12 20 15 45 9 55 26 59 26 6 0 -41 18 -65 43 -55 24 9 28 43 6 65 -10 10 -23
19 -29 19 -5 0 -10 5 -10 11 0 6 15 2 33 -10 23 -15 32 -28 30 -45z m2907 54
c0 -5 -7 -10 -16 -10 -8 0 -12 5 -9 10 3 6 10 10 16 10 5 0 9 -4 9 -10z m324
4 c24 -9 19 -21 -11 -27 -27 -5 -53 7 -53 24 0 10 41 12 64 3z m-76 -25 c27
-17 29 -31 4 -27 -11 2 -26 -3 -36 -11 -22 -18 -31 -8 -16 18 9 17 8 21 -5 21
-8 0 -15 4 -15 9 0 13 41 7 68 -10z m-5093 -51 c8 -29 46 -162 83 -295 l69
-243 -42 0 -41 0 -14 58 -15 57 -61 1 c-34 1 -67 -2 -74 -6 -6 -4 -17 -29 -24
-56 -12 -48 -13 -49 -53 -52 l-42 -3 11 38 c20 74 148 528 153 541 11 30 35
10 50 -40z m275 -203 l0 -245 90 0 90 0 0 -45 0 -45 -130 0 -130 0 0 290 0
290 40 0 40 0 0 -245z m320 0 l0 -245 95 0 95 0 0 -45 0 -45 -134 0 -134 0 -1
290 -2 290 41 0 40 0 0 -245z m4410 191 c0 -3 -4 -8 -10 -11 -5 -3 -10 -1 -10
4 0 6 5 11 10 11 6 0 10 -2 10 -4z m-2157 -90 c12 -8 63 -16 116 -19 84 -5 97
-9 115 -31 12 -13 35 -32 51 -40 l30 -17 -35 5 c-19 2 -65 12 -101 22 -67 17
-119 14 -119 -9 0 -6 10 -28 22 -47 l22 -35 10 38 c5 20 12 37 15 37 7 0 31
-50 31 -64 0 -6 7 -24 15 -40 16 -31 9 -45 -25 -46 -8 0 12 -13 44 -29 l60
-29 49 44 c56 51 87 57 87 19 0 -14 -8 -33 -17 -43 -79 -83 -77 -80 -63 -107
9 -18 22 -25 44 -26 24 -1 26 -3 9 -6 -27 -5 -29 -15 -7 -48 14 -21 24 -25 64
-25 44 0 49 -3 74 -40 14 -22 26 -42 26 -44 0 -3 -12 -6 -27 -8 -27 -3 -26 -5
27 -42 76 -54 79 -58 50 -55 -14 2 -30 0 -37 -4 -6 -4 -38 1 -71 12 -41 12
-65 15 -77 9 -11 -7 -22 -5 -33 5 -16 13 -71 24 -169 32 -33 3 -41 1 -36 -11
6 -17 -7 -18 -42 -2 -26 12 -34 37 -12 39 9 0 9 2 0 5 -7 3 -9 12 -6 20 4 11
-2 14 -28 12 -26 -2 -37 -10 -48 -31 -12 -25 -17 -27 -45 -20 -17 4 -48 8 -68
7 -23 0 -34 4 -31 11 4 5 3 7 -2 3 -4 -4 -14 -3 -22 4 -10 8 -12 8 -8 -4 5
-11 -1 -14 -23 -10 -17 2 -33 -1 -37 -9 -6 -8 -4 -11 6 -7 8 3 26 -1 40 -8 21
-13 21 -14 2 -9 -12 3 -24 2 -27 -3 -3 -6 3 -12 14 -15 28 -7 25 -27 -5 -27
-18 0 -23 -4 -19 -15 5 -11 -2 -15 -27 -15 -23 0 -30 -3 -20 -9 16 -11 3 -20
-33 -23 -30 -3 -33 -13 -8 -27 10 -6 12 -11 4 -11 -7 0 -27 10 -45 22 -18 13
-34 24 -36 25 -2 2 3 11 11 20 15 19 31 53 23 53 -2 0 -13 -10 -25 -22 -29
-31 -35 -17 -11 27 14 27 17 43 11 56 -9 16 -7 17 19 9 15 -4 38 -13 50 -20
l22 -11 -25 -20 c-15 -11 -26 -26 -26 -32 0 -7 6 -5 13 5 7 9 25 20 40 23 28
7 36 20 15 27 -6 2 -15 29 -20 59 -9 60 -14 83 -24 117 -4 13 -2 22 5 22 6 0
11 14 11 30 0 17 5 30 11 30 6 0 8 -8 5 -17 -3 -10 -1 -25 4 -33 8 -12 10 -12
16 4 6 17 8 16 20 -5 7 -13 13 -32 14 -41 0 -10 9 -23 20 -30 11 -7 20 -22 20
-34 0 -30 36 -38 61 -13 21 21 11 27 -10 7 -10 -11 -12 -9 -9 7 2 11 10 19 16
17 7 -1 12 2 12 6 0 12 51 34 59 26 11 -11 60 110 49 123 -13 16 -105 46 -118
38 -5 -3 -10 -2 -10 4 0 16 46 24 109 18 56 -5 59 -4 76 25 14 25 15 32 4 39
-11 7 -11 9 -1 9 7 0 10 5 7 10 -3 6 -17 10 -29 10 -13 0 -42 7 -65 15 -55 19
-52 3 4 -24 65 -30 78 -71 18 -56 -15 3 -43 24 -63 45 -24 25 -48 41 -73 45
l-37 7 0 -36 c0 -29 4 -36 20 -36 11 0 20 -4 20 -10 0 -5 -3 -9 -7 -8 -8 1
-57 -17 -76 -29 -6 -3 -7 17 -2 56 7 65 6 67 -47 63 -31 -3 -20 28 27 76 25
25 45 39 45 32 0 -7 3 -10 7 -6 4 4 7 19 8 34 0 32 34 43 55 17 16 -20 34 -19
26 1 -5 13 -2 15 16 9 60 -18 71 -18 65 -1 -8 20 -3 20 26 2z m-1019 -51 c-4
-8 -10 -12 -15 -9 -11 6 -2 24 11 24 5 0 7 -7 4 -15z m2316 -20 c0 -16 4 -23
13 -19 15 5 67 -32 67 -47 0 -6 -9 -8 -20 -5 -11 3 -29 9 -40 12 -16 4 -20 1
-20 -20 0 -19 5 -26 20 -26 20 0 29 -19 10 -21 -5 -1 -15 -2 -20 -3 -6 0 -14
-7 -19 -14 -5 -9 -11 -5 -20 15 -10 21 -10 40 0 90 13 63 29 85 29 38z m-900
-31 c0 -20 -4 -25 -16 -20 -9 3 -27 9 -42 13 -25 6 -25 6 9 18 48 18 49 18 49
-11z m1053 4 c-6 -7 -12 -20 -15 -28 -3 -9 -7 -10 -11 -3 -4 6 0 19 9 27 18
19 31 21 17 4z m-51 -70 c-7 -7 -12 -8 -12 -2 0 14 12 26 19 19 2 -3 -1 -11
-7 -17z m-2478 -53 c-4 -8 -10 -12 -15 -9 -11 6 -2 24 11 24 5 0 7 -7 4 -15z
m33 -22 c-3 -10 -5 -4 -5 12 0 17 2 24 5 18 2 -7 2 -21 0 -30z m-67 -19 c0 -2
-7 -4 -15 -4 -8 0 -15 4 -15 10 0 5 7 7 15 4 8 -4 15 -8 15 -10z m2870 0 c0
-2 -7 -4 -15 -4 -8 0 -15 4 -15 10 0 5 7 7 15 4 8 -4 15 -8 15 -10z m-2061
-23 c18 -12 7 -41 -16 -41 -14 0 -19 -9 -20 -42 -3 -46 -7 -53 -23 -43 -8 5
-9 24 -5 59 10 70 28 90 64 67z m1635 -116 c-4 -8 -8 -15 -10 -15 -2 0 -4 7
-4 15 0 8 4 15 10 15 5 0 7 -7 4 -15z m-4184 -172 c5 -21 43 -155 83 -298 l74
-260 -30 -3 c-46 -5 -54 3 -68 62 l-12 56 -73 0 -72 0 -14 -57 -14 -58 -43 -3
c-33 -2 -42 0 -39 10 3 7 40 139 83 293 44 154 84 283 90 287 18 14 24 9 35
-29z m392 16 c17 -9 19 -17 14 -52 -4 -23 -9 -43 -11 -45 -2 -2 -17 4 -34 12
-60 32 -101 11 -101 -51 0 -36 -1 -35 113 -139 35 -32 47 -51 55 -90 32 -153
-74 -262 -201 -206 l-46 20 11 39 c15 54 16 55 51 37 36 -19 82 -21 103 -3 19
15 18 79 -2 107 -9 13 -39 41 -67 64 -64 50 -83 78 -92 134 -11 79 34 176 88
187 30 7 95 -1 119 -14z m917 -6 c70 -52 95 -127 95 -278 0 -90 -5 -121 -23
-167 -27 -71 -69 -114 -122 -128 -83 -23 -153 21 -190 118 -29 75 -32 262 -5
332 41 108 96 154 175 146 24 -2 55 -13 70 -23z m-737 -100 l-3 -113 85 0 86
0 0 116 0 115 37 -3 38 -3 0 -290 0 -290 -37 -3 -38 -3 0 133 0 133 -74 0
c-41 0 -78 -3 -81 -7 -4 -3 -7 -62 -8 -130 l-2 -123 -37 -3 -38 -3 0 296 0
296 38 -3 37 -3 -3 -112z m408 -178 l0 -295 -40 0 -40 0 0 295 0 295 40 0 40
0 0 -295z m1450 201 c0 -37 -10 -48 -47 -52 -13 -2 -36 -9 -52 -17 l-30 -15
10 27 c11 27 40 59 74 79 34 20 45 14 45 -22z m354 -68 c6 -4 -4 -8 -21 -8
-18 0 -33 5 -33 10 0 6 7 10 15 10 8 0 16 8 16 18 1 14 2 13 6 -3 3 -11 10
-23 17 -27z m26 22 c-20 -13 -33 -13 -25 0 3 6 14 10 23 10 15 0 15 -2 2 -10z
m255 -20 c3 -5 1 -10 -4 -10 -6 0 -11 5 -11 10 0 6 2 10 4 10 3 0 8 -4 11 -10z
m-225 -20 c0 -13 -5 -18 -15 -14 -12 5 -13 10 -4 20 15 19 19 18 19 -6z m160
-5 c-10 -12 -10 -18 0 -30 10 -12 10 -15 -4 -15 -9 0 -16 5 -16 11 0 12 -42 2
-51 -13 -9 -13 -32 19 -26 36 4 11 18 14 46 11 22 -2 43 1 46 6 4 5 9 9 12 9
3 0 0 -7 -7 -15z m-640 -9 c0 -3 -4 -8 -10 -11 -5 -3 -10 -1 -10 4 0 6 5 11
10 11 6 0 10 -2 10 -4z m434 -18 c-5 -7 -2 -9 9 -5 8 3 18 0 20 -8 4 -8 -2
-12 -19 -11 -16 1 -24 7 -24 19 0 9 5 17 11 17 5 0 7 -5 3 -12z m296 -8 c0
-12 -8 -12 -35 0 -18 8 -17 9 8 9 15 1 27 -3 27 -9z m-640 -40 c-19 -12 -35 3
-26 26 6 17 8 17 24 0 15 -15 15 -18 2 -26z m245 6 c15 -8 22 -17 16 -20 -11
-7 -51 14 -51 26 0 11 4 10 35 -6z m164 -8 c1 10 6 10 22 2 11 -7 27 -9 35 -6
8 3 14 1 14 -5 0 -5 -7 -12 -15 -15 -8 -4 -12 -10 -9 -16 4 -6 -9 -7 -33 -2
-21 4 -44 7 -50 7 -7 0 -13 4 -13 9 0 4 -7 8 -15 8 -8 0 -15 -4 -15 -8 0 -5
-7 -9 -15 -9 -8 0 -15 6 -15 14 0 7 3 12 8 11 4 0 15 2 26 7 11 5 26 3 37 -4
16 -10 19 -8 20 11 0 22 1 22 9 3 5 -11 9 -14 9 -7z m-366 -15 c-5 -13 -2 -15
15 -10 13 3 28 -1 37 -10 16 -15 11 -38 -6 -27 -5 3 -6 10 -3 16 4 7 2 8 -4 4
-16 -9 -52 11 -52 29 0 8 4 15 10 15 5 0 7 -7 3 -17z m201 -18 c25 -16 25 -18
9 -31 -10 -7 -22 -13 -28 -14 -5 0 -3 5 5 10 12 7 12 12 2 22 -14 14 -62 19
-62 6 0 -4 -4 -8 -10 -8 -5 0 -10 9 -10 21 0 18 5 20 33 16 19 -2 46 -12 61
-22z m-109 5 c3 -5 1 -10 -4 -10 -6 0 -11 5 -11 10 0 6 2 10 4 10 3 0 8 -4 11
-10z m275 -30 c0 -5 -4 -10 -10 -10 -5 0 -10 5 -10 10 0 6 5 10 10 10 6 0 10
-4 10 -10z m-260 -10 c0 -5 -2 -10 -4 -10 -3 0 -8 5 -11 10 -3 6 -1 10 4 10 6
0 11 -4 11 -10z m200 -20 c0 -5 -4 -10 -10 -10 -5 0 -10 5 -10 10 0 6 5 10 10
10 6 0 10 -4 10 -10z m-140 -21 c0 -6 7 -8 16 -5 9 3 25 -1 37 -9 21 -15 20
-15 -18 -9 -22 3 -43 8 -47 11 -11 6 -10 23 2 23 6 0 10 -5 10 -11z m499 -108
c18 -16 19 -20 6 -31 -12 -10 -15 -10 -15 4 0 9 -4 16 -10 16 -5 0 -10 7 -10
15 0 19 2 19 29 -4z m-2694 -116 c35 -29 19 -34 -17 -5 -14 10 -28 16 -32 13
-3 -3 -6 -1 -6 5 0 19 23 14 55 -13z m-90 -34 c8 -14 -13 -24 -33 -16 -14 5
-14 7 -2 15 19 12 27 12 35 1z m2942 -17 c-3 -3 -12 -4 -19 -1 -8 3 -5 6 6 6
11 1 17 -2 13 -5z m-23 -23 c3 -5 -3 -11 -14 -14 -20 -5 -26 3 -13 16 9 10 21
9 27 -2z m-3170 -44 c24 -16 24 -18 12 -54 -8 -21 -18 -37 -22 -36 -5 1 -23 8
-41 15 -105 41 -188 -147 -139 -315 27 -93 100 -126 164 -72 l29 24 16 -35
c13 -26 15 -40 7 -54 -27 -51 -139 -70 -201 -34 -77 45 -124 210 -100 354 18
111 67 192 131 219 34 15 113 8 144 -12z m406 -32 l0 -45 -70 0 -70 0 0 -251
0 -250 -37 3 -38 3 -5 245 -5 245 -35 2 c-19 1 -47 2 -62 2 -26 1 -28 4 -28
46 l0 45 175 0 175 0 0 -45z m122 -17 c3 -35 4 -144 2 -243 -1 -99 -3 -204 -3
-232 l-1 -53 -35 0 -35 0 0 98 c0 53 -2 186 -4 295 l-4 197 38 0 37 0 5 -62z
m3262 10 c8 -13 8 -23 -2 -38 -10 -17 -10 -26 4 -51 22 -44 11 -47 -21 -5 -34
45 -45 45 -45 0 0 -21 -4 -33 -10 -29 -5 3 -10 38 -10 76 l0 70 36 -3 c22 -2
42 -10 48 -20z m111 -52 c25 -67 26 -98 1 -63 -17 22 -55 22 -72 0 -21 -28
-18 2 7 67 23 61 29 73 35 68 2 -2 15 -35 29 -72z m-2655 -32 c0 -2 -7 -4 -15
-4 -8 0 -15 4 -15 10 0 5 7 7 15 4 8 -4 15 -8 15 -10z m135 -155 c11 -17 0
-20 -21 -4 -17 13 -17 14 -2 15 9 0 20 -5 23 -11z m25 -129 c0 -5 -7 -10 -15
-10 -8 0 -15 5 -15 10 0 6 7 10 15 10 8 0 15 -4 15 -10z m300 -207 c37 -33 37
-38 1 -38 -16 0 -27 3 -24 8 2 4 -3 7 -12 7 -9 0 -13 -4 -10 -10 3 -5 4 -10 1
-10 -2 0 -11 -3 -20 -6 -10 -4 -16 -1 -16 9 0 9 9 19 20 22 11 3 20 15 20 26
0 25 4 24 40 -8z m-204 -80 c-7 -7 -26 7 -26 19 0 6 6 6 15 -2 9 -7 13 -15 11
-17z"/>
<path d="M4280 4709 c0 -24 23 -21 28 4 2 10 -3 17 -12 17 -10 0 -16 -9 -16
-21z"/>
<path d="M750 4924 c0 -32 2 -35 26 -32 38 4 55 35 30 54 -36 26 -56 18 -56
-22z"/>
<path d="M1267 4908 c-4 -14 -10 -33 -13 -42 -5 -12 0 -16 20 -16 29 0 31 11
12 55 l-13 30 -6 -27z"/>
<path d="M71 4659 c-14 -41 -15 -39 14 -39 23 0 25 3 19 28 -10 43 -21 46 -33
11z"/>
<path d="M374 4656 c-3 -8 -4 -27 -2 -43 2 -22 8 -28 27 -28 33 0 48 26 33 59
-13 28 -49 36 -58 12z"/>
<path d="M802 4668 c-27 -27 -11 -88 23 -88 24 0 35 17 35 54 0 24 -17 46 -35
46 -6 0 -16 -5 -23 -12z"/>
<path d="M910 4459 c0 -25 3 -30 21 -27 31 4 49 35 29 48 -31 20 -50 12 -50
-21z"/>
<path d="M917 4413 c-4 -3 -7 -21 -7 -40 0 -23 5 -33 16 -33 27 0 54 20 54 40
0 27 -46 51 -63 33z"/>
<path d="M698 4415 c-15 -33 3 -75 32 -75 29 0 47 42 32 75 -7 15 -20 25 -32
25 -12 0 -25 -10 -32 -25z"/>
<path d="M40 3980 c0 -25 4 -30 24 -30 31 0 43 30 20 47 -29 21 -44 15 -44
-17z"/>
<path d="M545 3939 c-8 -35 -4 -42 19 -33 10 4 15 13 12 21 -3 8 -6 21 -6 29
0 26 -18 14 -25 -17z"/>
<path d="M830 3991 c-25 -47 -3 -121 35 -121 42 0 65 89 33 128 -16 19 -56 14
-68 -7z"/>
<path d="M990 3985 c0 -23 4 -26 28 -23 19 2 27 9 27 23 0 14 -8 21 -27 23
-24 3 -28 0 -28 -23z"/>
<path d="M990 3904 c0 -32 2 -35 26 -32 56 6 53 68 -2 68 -21 0 -24 -5 -24
-36z"/>
<path d="M500 3751 c-16 -30 -12 -76 9 -102 41 -51 99 24 72 94 -8 21 -17 27
-40 27 -20 0 -34 -7 -41 -19z"/>
<path d="M330 3230 c0 -68 1 -70 24 -70 30 0 56 34 56 72 0 33 -31 68 -60 68
-18 0 -20 -7 -20 -70z"/>
<path d="M487 3286 c-7 -19 3 -56 15 -56 19 0 48 21 48 35 0 14 -29 35 -48 35
-6 0 -12 -6 -15 -14z"/>
<path d="M381 3047 c-21 -26 -24 -75 -7 -102 21 -31 61 -33 77 -4 15 28 14 86
-1 104 -16 19 -54 19 -69 2z"/>
<path d="M540 3031 c0 -28 3 -31 31 -31 27 0 30 3 27 28 -2 21 -9 28 -30 30
-25 3 -28 0 -28 -27z"/>
<path d="M810 2990 c0 -63 2 -70 20 -70 29 0 60 35 60 68 0 38 -26 72 -56 72
-23 0 -24 -2 -24 -70z"/>
<path d="M1138 2769 c-29 -16 -21 -29 17 -29 37 0 49 22 19 34 -19 7 -15 8
-36 -5z"/>
<path d="M1272 2768 c-20 -20 -14 -28 23 -28 19 0 35 4 35 8 0 12 -22 32 -35
32 -6 0 -16 -5 -23 -12z"/>
<path d="M172 2004 c-29 -122 -30 -119 19 -117 22 0 42 3 45 6 2 2 -6 49 -19
103 l-23 99 -22 -91z"/>
<path d="M3170 1871 c0 -5 6 -12 13 -14 10 -4 10 -6 0 -6 -7 -1 -13 -6 -13
-13 0 -8 6 -7 16 4 9 9 13 21 10 27 -9 13 -26 15 -26 2z"/>
<path d="M3230 1773 c0 -25 15 -38 25 -22 4 6 0 18 -9 27 -15 15 -16 15 -16
-5z"/>
<path d="M3177 1763 c-11 -10 -8 -43 3 -43 6 0 10 11 10 25 0 26 -2 29 -13 18z"/>
<path d="M3144 1678 c-18 -26 -44 -76 -44 -86 0 -12 74 8 91 25 9 9 6 19 -10
42 -25 35 -25 35 -37 19z"/>
<path d="M3282 1648 c-14 -17 -4 -20 73 -18 81 2 78 16 -6 26 -42 5 -58 3 -67
-8z"/>
<path d="M2990 1625 c-14 -16 -10 -18 14 -9 9 3 16 10 16 15 0 14 -16 11 -30
-6z"/>
<path d="M2825 1600 c-14 -15 -15 -20 -4 -20 8 0 20 9 27 20 7 11 8 20 4 20
-5 0 -17 -9 -27 -20z"/>
<path d="M3290 1546 c0 -9 5 -16 10 -16 6 0 10 4 10 9 0 6 -4 13 -10 16 -5 3
-10 -1 -10 -9z"/>
<path d="M171 1305 c-13 -55 -25 -103 -28 -107 -2 -5 19 -8 47 -8 l51 0 -6 33
c-4 17 -14 66 -24 107 l-17 75 -23 -100z"/>
<path d="M1385 1464 c-59 -64 -60 -293 -1 -361 52 -61 133 -15 155 86 23 106
6 237 -35 278 -33 33 -87 31 -119 -3z"/>
<path d="M3070 1296 c0 -2 9 -6 20 -9 11 -3 20 -1 20 4 0 5 -9 9 -20 9 -11 0
-20 -2 -20 -4z"/>
<path d="M4070 811 c0 -16 6 -21 26 -21 33 0 30 33 -4 38 -17 3 -22 -2 -22
-17z"/>
<path d="M4203 780 c-6 -14 -7 -26 -2 -28 18 -7 25 4 18 28 l-6 25 -10 -25z"/>
<path d="M211 5398 c18 -24 36 -47 41 -52 4 -6 8 13 8 42 l0 52 -41 0 -41 0
33 -42z"/>
<path d="M344 5414 c3 -9 6 -20 6 -25 0 -14 17 -11 34 7 21 20 12 34 -21 34
-19 0 -24 -4 -19 -16z"/>
<path d="M490 5411 c-24 -46 -5 -111 34 -111 13 0 28 6 33 13 11 13 10 88 -1
106 -12 18 -54 13 -66 -8z"/>
<path d="M1211 5416 c-10 -12 -11 -82 -2 -113 3 -9 41 0 50 11 13 15 11 82 -3
104 -10 16 -31 15 -45 -2z"/>
<path d="M340 5330 c0 -26 3 -30 29 -30 30 0 45 19 35 45 -4 9 -19 15 -35 15
-26 0 -29 -4 -29 -30z"/>
<path d="M65 4941 c-8 -14 6 -42 19 -38 6 2 21 0 34 -4 12 -5 22 -5 22 -1 0
10 -20 38 -20 28 0 -4 -11 -1 -24 8 -14 9 -27 12 -31 7z"/>
<path d="M21 4897 c-15 -44 -8 -58 15 -35 13 12 14 22 7 45 l-10 28 -12 -38z"/>
<path d="M0 4422 c0 -32 4 -42 16 -42 13 0 15 7 10 32 -10 52 -26 58 -26 10z"/>
<path d="M0 3190 c0 -32 11 -38 29 -16 9 11 8 18 -4 30 -22 22 -25 20 -25 -14z"/>
<path d="M4727 2101 c-6 -24 0 -31 20 -24 12 5 12 7 1 14 -10 7 -10 9 0 9 6 0
12 5 12 10 0 18 -28 10 -33 -9z"/>
<path d="M5304 2085 c-4 -8 -4 -22 -1 -30 8 -19 -13 -31 -24 -14 -6 10 -9 11
-9 2 0 -7 -7 -13 -15 -13 -8 0 -15 -9 -15 -21 0 -11 5 -17 10 -14 6 3 10 -1
10 -9 0 -9 6 -16 13 -17 6 0 -1 -5 -18 -10 -16 -5 -47 -6 -69 -3 -36 6 -38 5
-31 -17 4 -13 19 -37 32 -53 17 -20 23 -39 21 -59 -3 -26 1 -32 25 -38 15 -4
27 -4 27 -1 0 7 18 -30 38 -80 7 -16 18 -28 26 -28 7 0 16 -6 19 -14 4 -10 -5
-12 -41 -8 -26 2 -48 6 -50 7 -2 2 3 13 10 24 11 18 11 23 -2 31 -24 16 -29
12 -51 -35 -12 -25 -27 -45 -35 -45 -18 0 -19 2 16 -71 22 -47 27 -67 19 -81
-10 -18 -29 -25 -29 -10 0 4 -21 29 -45 55 -25 26 -45 53 -45 60 0 7 -29 43
-65 82 -36 38 -65 73 -65 77 0 5 -4 8 -10 8 -5 0 -10 -12 -10 -27 0 -16 -5
-46 -12 -68 l-12 -40 -7 30 c-5 22 -7 25 -9 10 -2 -11 -3 -27 -2 -35 0 -12 -2
-11 -13 3 -7 10 -11 27 -8 37 3 11 0 20 -6 20 -6 0 -11 -4 -11 -10 0 -5 -4
-10 -9 -10 -6 0 -22 -11 -37 -25 -24 -22 -25 -25 -7 -25 10 0 28 -7 39 -15 18
-13 16 -14 -16 -9 -86 11 -98 9 -106 -21 -4 -15 -13 -25 -24 -25 -10 0 -20 -6
-23 -12 -3 -10 -9 -10 -26 0 -30 17 -40 15 -34 -8 3 -11 11 -20 18 -20 7 0 18
-6 24 -14 9 -11 7 -15 -9 -19 -18 -5 -20 -13 -20 -76 0 -56 3 -71 15 -71 8 0
18 -14 23 -32 11 -42 29 -46 37 -9 9 40 22 39 30 -1 16 -72 38 -75 60 -7 19
55 26 55 46 -6 l14 -40 5 55 c3 30 9 60 13 67 15 23 -148 133 -174 117 -16 -9
-10 13 10 37 l18 23 33 -32 c18 -18 49 -40 69 -49 20 -9 39 -19 44 -21 4 -2 7
30 7 71 0 88 6 96 78 99 48 2 54 0 81 -32 25 -30 28 -37 15 -49 -9 -10 -30
-14 -61 -13 -62 3 -83 -9 -51 -30 13 -9 36 -42 52 -74 16 -33 33 -67 37 -76 5
-10 9 -27 9 -38 0 -32 48 -27 56 5 10 42 24 28 24 -25 0 -37 4 -50 15 -50 21
0 29 41 21 110 -5 39 -3 61 4 65 15 9 31 -7 33 -34 1 -11 4 -21 8 -21 4 0 15
-21 25 -47 22 -61 27 -66 53 -58 28 9 30 65 3 65 -26 0 -34 11 -21 26 7 9 21
11 37 7 19 -4 23 -3 17 7 -5 8 -11 30 -15 51 -5 29 -4 39 7 43 32 13 41 5 48
-36 4 -24 9 -47 12 -51 3 -4 20 16 39 45 33 53 33 54 34 175 l0 122 -37 36
c-20 19 -41 36 -47 36 -6 1 -24 2 -40 3 -16 0 -31 7 -34 15 -4 13 5 13 115 -5
l42 -6 0 156 c-1 86 -5 156 -9 156 -5 0 -16 3 -26 7 -15 6 -16 1 -11 -38 l6
-44 -25 30 c-13 17 -24 35 -24 41 0 7 -7 15 -16 18 -22 8 -24 8 -30 -9z m51
-74 c3 -5 1 -12 -5 -16 -5 -3 -10 -1 -10 5 0 6 -4 9 -9 5 -5 -3 -12 -1 -16 5
-3 5 3 10 14 10 11 0 22 -4 26 -9z m50 -104 c22 -40 15 -58 -16 -39 -27 17
-42 5 -35 -28 6 -34 -1 -42 -25 -29 -15 7 -19 21 -19 59 0 28 5 50 10 50 6 0
10 -4 10 -10 0 -5 4 -10 9 -10 6 0 7 16 4 37 l-6 38 24 -16 c13 -9 33 -32 44
-52z m15 -93 c0 -8 -4 -14 -10 -14 -5 0 -10 4 -10 9 0 5 -3 18 -7 28 -6 16 -5
16 10 4 9 -7 17 -20 17 -27z m-719 -297 c-13 -13 -26 -3 -16 12 3 6 11 8 17 5
6 -4 6 -10 -1 -17z m303 -39 c22 -31 21 -61 0 -33 -9 11 -20 28 -25 38 -14 25
7 22 25 -5z"/>
<path d="M5220 2080 c0 -14 26 -23 41 -15 8 6 7 10 -2 16 -19 12 -39 11 -39
-1z"/>
<path d="M4636 2072 c-3 -5 1 -9 9 -9 8 0 12 4 9 9 -3 4 -7 8 -9 8 -2 0 -6 -4
-9 -8z"/>
<path d="M5116 2060 c-16 -10 -35 -16 -42 -13 -7 2 -17 2 -22 -1 -11 -6 62
-86 78 -86 18 0 11 20 -15 44 -14 13 -25 26 -25 30 0 11 73 -5 95 -20 28 -20
40 -17 42 7 1 12 -1 19 -4 16 -3 -4 -14 4 -25 16 -18 20 -19 21 -13 2 6 -18 5
-18 -15 3 -11 12 -22 22 -23 21 -1 0 -15 -9 -31 -19z"/>
<path d="M4540 1881 c0 -30 1 -31 16 -16 16 15 16 18 0 33 -15 15 -16 14 -16
-17z"/>
<path d="M4519 1743 c-16 -29 -15 -73 2 -73 5 0 9 -11 9 -25 0 -18 5 -25 20
-25 11 0 23 -7 27 -16 5 -13 9 -12 29 7 12 11 27 18 33 14 12 -7 14 17 5 51
-8 29 -50 52 -66 36 -7 -7 -16 -12 -20 -12 -13 0 -9 28 5 33 9 3 9 7 -2 20
-18 23 -24 21 -42 -10z"/>
<path d="M5170 1750 c0 -5 6 -10 14 -10 8 0 18 5 21 10 3 6 -3 10 -14 10 -12
0 -21 -4 -21 -10z"/>
<path d="M5083 1693 c-17 -6 -16 -28 2 -63 18 -34 31 -38 38 -11 4 16 -17 82
-25 80 -2 0 -9 -3 -15 -6z"/>
<path d="M4487 1610 c-15 -22 -14 -25 10 -57 22 -28 28 -32 35 -19 5 9 5 23
-1 33 -5 10 -13 29 -18 42 l-9 25 -17 -24z"/>
<path d="M4440 1509 c0 -5 5 -7 10 -4 6 3 10 8 10 11 0 2 -4 4 -10 4 -5 0 -10
-5 -10 -11z"/>
<path d="M4443 1483 c-19 -7 -16 -32 12 -90 14 -32 31 -53 40 -53 9 0 13 4 10
10 -3 5 3 17 14 26 18 16 18 20 6 43 -16 30 -53 71 -63 70 -4 0 -13 -3 -19 -6z"/>
<path d="M5426 1345 c4 -8 8 -15 10 -15 2 0 4 7 4 15 0 8 -4 15 -10 15 -5 0
-7 -7 -4 -15z"/>
<path d="M4495 1300 c-9 -15 4 -30 26 -30 23 0 26 25 3 34 -21 8 -22 8 -29 -4z"/>
<path d="M5398 1294 c-11 -11 -10 -134 1 -134 5 0 17 -7 25 -16 15 -14 16 -13
16 10 0 16 -6 26 -15 26 -10 0 -15 16 -17 61 -2 33 -6 57 -10 53z"/>
<path d="M4810 1273 c0 -6 -3 -18 -6 -27 -4 -11 -1 -16 10 -16 9 0 16 6 16 13
0 16 -20 46 -20 30z"/>
<path d="M5320 1195 c0 -8 -4 -15 -10 -15 -5 0 -10 5 -10 10 0 6 -11 10 -25
10 -14 0 -25 -5 -25 -11 0 -6 -9 -8 -20 -4 -22 7 -240 -24 -240 -34 1 -13 99
-70 105 -61 3 6 11 10 17 10 6 0 6 -6 -2 -15 -21 -25 3 -40 25 -15 19 21 60
27 70 10 3 -6 -4 -10 -17 -10 -25 0 -48 -17 -48 -34 1 -6 21 -26 45 -43 45
-34 56 -39 54 -25 -1 4 -1 33 0 65 1 54 2 57 27 57 56 0 81 -35 50 -69 -13
-14 -12 -19 4 -41 22 -29 37 -22 20 10 -8 15 -8 25 -1 34 9 11 9 40 2 169 -1
21 -21 23 -21 2z"/>
<path d="M5433 1040 c0 -25 2 -35 4 -22 2 12 2 32 0 45 -2 12 -4 2 -4 -23z"/>
<path d="M5260 1045 c0 -26 14 -31 39 -16 19 12 6 41 -19 41 -15 0 -20 -7 -20
-25z"/>
<path d="M5390 1011 c0 -5 5 -13 10 -16 6 -3 10 -2 10 4 0 5 -4 13 -10 16 -5
3 -10 2 -10 -4z"/>
<path d="M5260 970 c0 -25 4 -30 25 -30 27 0 32 16 11 43 -20 26 -36 21 -36
-13z"/>
<path d="M5370 955 c0 -13 4 -14 20 -5 11 6 20 13 20 15 0 3 -9 5 -20 5 -11 0
-20 -7 -20 -15z"/>
<path d="M5295 928 c-11 -6 -21 -12 -23 -13 -1 -1 4 -15 13 -31 8 -16 18 -44
21 -63 l7 -34 18 38 c25 51 26 115 2 115 -10 0 -27 -6 -38 -12z"/>
<path d="M5400 911 c0 -5 9 -19 20 -32 15 -19 19 -21 20 -7 0 9 -7 24 -16 32
-18 18 -24 20 -24 7z"/>
<path d="M1075 778 l-27 -24 38 -19 c22 -11 56 -30 76 -42 21 -13 42 -23 47
-23 16 0 -7 72 -31 96 -36 36 -70 40 -103 12z"/>
<path d="M5337 786 c-11 -27 -8 -36 8 -36 16 0 17 5 6 34 -7 18 -8 18 -14 2z"/>
<path d="M1860 714 c0 -44 3 -52 26 -64 21 -12 27 -12 33 -1 6 9 11 10 15 2 4
-6 2 -11 -5 -11 -7 0 -9 -3 -6 -7 4 -3 -1 -12 -11 -19 -21 -16 -32 -17 -32 -3
0 5 6 7 13 4 6 -4 4 0 -5 8 -10 8 -15 17 -11 20 3 4 1 7 -5 7 -6 0 -11 -8 -10
-17 0 -10 -2 -37 -6 -60 -3 -24 -2 -43 3 -43 11 0 23 29 16 40 -3 5 0 12 6 15
6 4 13 -2 16 -14 4 -15 13 -20 32 -19 42 1 62 9 55 20 -5 7 0 9 14 6 19 -5 22
-2 22 23 0 20 -5 29 -17 29 -14 0 -14 3 4 23 18 18 19 24 8 35 -8 6 -19 12
-25 12 -6 0 -8 -6 -4 -12 4 -7 -2 -5 -14 6 -12 10 -20 21 -18 25 2 3 -5 15
-16 26 -18 18 -19 18 -12 1 5 -14 3 -17 -7 -14 -8 3 -13 12 -13 20 1 11 -7 15
-22 14 -22 -1 -24 -5 -24 -52z m115 -62 c-3 -3 -11 0 -18 7 -9 10 -8 11 6 5
10 -3 15 -9 12 -12z"/>
<path d="M1031 703 c-13 -46 -14 -174 -1 -227 20 -89 80 -120 138 -71 34 28
52 90 52 176 0 42 -3 52 -20 56 -11 3 -20 9 -20 14 0 5 -23 20 -52 35 -28 14
-58 32 -66 40 -19 19 -20 19 -31 -23z"/>
<path d="M5330 723 c0 -25 36 -113 47 -113 7 0 13 -4 13 -10 0 -5 -6 -10 -14
-10 -17 0 -14 -83 3 -104 9 -10 8 -15 -2 -19 -12 -4 -12 -19 -2 -88 8 -55 9
-96 3 -123 -10 -42 -5 -146 8 -180 6 -16 4 -18 -10 -13 -12 5 -19 0 -26 -19
-16 -41 -13 -44 40 -44 59 0 65 14 23 56 -18 18 -23 29 -15 32 7 2 9 9 5 15
-3 7 3 3 15 -7 l22 -19 -1 224 c-1 123 -4 212 -6 197 -8 -51 -23 -29 -24 35 0
34 -3 73 -5 87 -3 14 -4 35 -4 48 0 28 -29 62 -52 62 -10 0 -18 -3 -18 -7z"/>
<path d="M1440 589 c0 -58 10 -72 78 -108 22 -11 22 -11 10 8 -7 12 -15 21
-19 21 -3 0 -6 6 -6 13 0 6 -15 37 -32 67 l-31 55 0 -56z"/>
<path d="M2031 608 c-1 -28 3 -38 14 -38 18 0 20 17 3 23 -7 2 -10 8 -6 12 4
4 14 2 22 -4 8 -7 17 -8 20 -3 7 12 -3 22 -25 22 -9 0 -20 6 -22 13 -3 6 -6
-5 -6 -25z"/>
<path d="M1575 600 c-3 -5 1 -20 9 -32 l16 -22 0 26 c0 29 -15 45 -25 28z"/>
<path d="M4310 580 c0 -5 5 -10 10 -10 6 0 10 5 10 10 0 6 -4 10 -10 10 -5 0
-10 -4 -10 -10z"/>
<path d="M5432 560 c0 -14 2 -19 5 -12 2 6 2 18 0 25 -3 6 -5 1 -5 -13z"/>
<path d="M4310 520 c0 -29 4 -40 15 -40 11 0 14 10 12 40 -3 54 -27 54 -27 0z"/>
<path d="M4402 471 c-7 -4 -15 -24 -16 -43 -2 -19 -6 -40 -10 -47 -11 -18 60
-14 78 5 9 8 16 27 16 41 0 21 -3 23 -14 14 -17 -14 -29 0 -20 23 7 17 -12 21
-34 7z"/>
<path d="M5030 466 c0 -9 5 -16 10 -16 6 0 10 4 10 9 0 6 -4 13 -10 16 -5 3
-10 -1 -10 -9z"/>
<path d="M4937 445 c-4 -8 -4 -23 -2 -35 4 -22 -10 -28 -18 -7 -3 7 -6 5 -6
-5 -1 -10 -6 -18 -11 -18 -7 0 -9 -20 -4 -59 6 -52 4 -61 -16 -81 -20 -20 -21
-25 -9 -46 15 -30 33 -30 60 -3 27 27 42 13 43 -43 1 -36 -3 -44 -26 -55 -24
-12 -26 -17 -18 -45 13 -45 18 -45 37 -2 23 55 25 62 27 122 1 29 6 56 12 60
31 20 47 113 23 128 -6 3 -9 19 -7 35 3 16 2 29 -2 29 -3 0 -16 9 -29 21 -22
20 -23 20 -37 3 -12 -17 -13 -17 -8 -1 7 21 -1 23 -9 2z m1 -196 c-2 -6 -8
-10 -13 -10 -5 0 -11 4 -13 10 -2 6 4 11 13 11 9 0 15 -5 13 -11z"/>
<path d="M4553 428 c-32 -51 -33 -58 -5 -72 15 -7 34 -11 42 -8 39 12 57 75
18 64 -17 -4 -20 -2 -15 11 8 21 -27 24 -40 5z"/>
<path d="M2281 353 c-1 -12 4 -25 10 -28 14 -9 27 4 13 13 -6 4 -14 14 -17 22
-4 10 -6 8 -6 -7z"/>
<path d="M4780 337 c0 -8 -9 -22 -20 -32 -19 -17 -19 -19 -4 -37 10 -10 24
-18 33 -18 41 1 76 64 36 65 -13 0 -19 6 -17 18 2 10 -3 17 -13 17 -8 0 -15
-6 -15 -13z"/>
<path d="M5097 281 c-2 -10 -1 -25 4 -32 6 -10 9 -4 9 19 0 36 -5 42 -13 13z"/>
<path d="M2270 269 c0 -5 5 -7 10 -4 6 3 10 8 10 11 0 2 -4 4 -10 4 -5 0 -10
-5 -10 -11z"/>
<path d="M5038 173 c-12 -28 -13 -42 -5 -51 10 -13 6 -19 -23 -34 -3 -2 -15
-22 -27 -45 l-22 -43 99 0 98 0 7 39 c5 32 3 43 -14 60 -11 11 -22 17 -25 12
-3 -4 -19 -6 -36 -3 -27 4 -31 8 -26 26 3 11 6 25 6 29 0 5 4 6 9 3 5 -4 4 5
-2 19 -7 14 -14 25 -17 25 -3 0 -13 -17 -22 -37z"/>
<path d="M1960 75 l0 -75 40 0 c22 0 40 5 40 10 0 6 7 10 15 10 14 0 14 4 -1
33 -17 34 -73 97 -86 97 -4 0 -8 -34 -8 -75z"/>
<path d="M2058 3 c7 -3 16 -2 19 1 4 3 -2 6 -13 5 -11 0 -14 -3 -6 -6z"/>
</g>
</svg>
